# xmcd
#
# Track frame offsets: 
#        150
#        9324
#        29900
#        43051
#        68836
#        73435
#        88527
#        105387
#        121674
#        135330
#        157014
#        169615
#        186197
#        188478
#        201995
#        218910
#        227335
#        250499
#        270752
#        285374
#        301788
#        319803
#        330130
#
# Disc length: 4541 seconds
#
# Revision: 0
# Processed by: cddbd v1.5.2PL0 Copyright (c) Steve Scherf et al.
# Submitted via: ExactAudioCopy v0.90b4
#
DISCID=3411bb17
DTITLE=T. Ray Becker - Keepin' It Western
DYEAR=2006
DGENRE=Country
TTITLE0=Introduction
TTITLE1=A Backward People
TTITLE2=The Vanishing Cowboy
TTITLE3=Blue Buckaroo
TTITLE4=Road Trips Introduction
TTITLE5=Conjurin' Up a Road Trip
TTITLE6=The Perfect Man for You
TTITLE7=Died an' Gone to Texas
TTITLE8=Restless Mind
TTITLE9=The Boy in Me
TTITLE10=What the Hell was I Thinkin'?'
TTITLE11=Draggin' Up for Texas
TTITLE12=Love Songs Introduction
TTITLE13=Only the Stars of the Night
TTITLE14=Walkin' on Thin Ice
TTITLE15=The Rose and the Sage (recited)
TTITLE16=Sweet Barbara Lynn
TTITLE17=The One that Does the Leavin'
TTITLE18=Goin' Back Down to Texas
TTITLE19=Shit-House Drunk on Lonesome
TTITLE20=End of the Blues (Life After You)
TTITLE21=Price of the Song (recited)
TTITLE22=Just Noodlin'
EXTD=
EXTT0=Introduction
EXTT1=A Backward People
EXTT2=
EXTT3=
EXTT4=
EXTT5=
EXTT6=
EXTT7=
EXTT8=
EXTT9=
EXTT10=
EXTT11=
EXTT12=
EXTT13=
EXTT14=
EXTT15=
EXTT16=
EXTT17=
EXTT18=
EXTT19=
EXTT20=
EXTT21=
EXTT22=
PLAYORDER=
